<svg xmlns="http://www.w3.org/2000/svg" viewBox="0 0 64 64" width="64" height="64">
  <defs>
    <!-- friendly bridge blue gradient -->
    <linearGradient id="gwbBlue" x1="0" y1="0" x2="0" y2="1">
      <stop offset="0%" stop-color="#2B8CFF"/>
      <stop offset="100%" stop-color="#1565D8"/>
    </linearGradient>
    <linearGradient id="deckBlue" x1="0" y1="0" x2="0" y2="1">
      <stop offset="0%" stop-color="#0F4DB3"/>
      <stop offset="100%" stop-color="#0C3D8C"/>
    </linearGradient>
  </defs>

  <!-- subtle sky -->
  <rect width="64" height="64" rx="10" fill="#F4F8FF"/>

  <!-- water (playful waves) -->
  <path d="M0 56 Q6 54 12 56 T24 56 T36 56 T48 56 T64 56 L64 64 L0 64 Z" fill="#BFE1FF"/>

  <!-- main cable -->
  <path d="M10 18 C22 6, 42 6, 54 18" fill="none" stroke="url(#gwbBlue)" stroke-width="3.5" stroke-linecap="round"/>

  <!-- hangers (few, so it reads at 16px) -->
  <g stroke="url(#gwbBlue)" stroke-width="1.6" stroke-linecap="round">
    <line x1="14" y1="18" x2="14" y2="38"/>
    <line x1="22" y1="13" x2="22" y2="38"/>
    <line x1="32" y1="11" x2="32" y2="38"/>
    <line x1="42" y1="13" x2="42" y2="38"/>
    <line x1="50" y1="18" x2="50" y2="38"/>
  </g>

  <!-- deck -->
  <line x1="8" y1="40" x2="56" y2="40" stroke="url(#deckBlue)" stroke-width="5" stroke-linecap="round"/>

  <!-- twin arches (upside-down McD vibe), thicker + rounded -->
  <path d="M16 54 C16 22, 28 22, 28 54" fill="none" stroke="url(#gwbBlue)" stroke-width="6.2" stroke-linecap="round"/>
  <path d="M36 54 C36 22, 48 22, 48 54" fill="none" stroke="url(#gwbBlue)" stroke-width="6.2" stroke-linecap="round"/>

  <!-- hint of lattice: a few crossbars inside each arch -->
  <g stroke="#79B6FF" stroke-width="2" stroke-linecap="round">
    <!-- left arch crossbars -->
    <line x1="18" y1="30" x2="26" y2="30"/>
    <line x1="18" y1="38" x2="26" y2="38"/>
    <line x1="18" y1="46" x2="26" y2="46"/>
    <!-- right arch crossbars -->
    <line x1="38" y1="30" x2="46" y2="30"/>
    <line x1="38" y1="38" x2="46" y2="38"/>
    <line x1="38" y1="46" x2="46" y2="46"/>
  </g>

  <!-- tiny shadow for depth -->
  <line x1="8" y1="42.5" x2="56" y2="42.5" stroke="#0C3D8C" stroke-opacity="0.25" stroke-width="3" stroke-linecap="round"/>
</svg>

